<?xml version="1.0" encoding="utf-8"?>
<!-- Generator: Adobe Illustrator 14.0.0, SVG Export Plug-In . SVG Version: 6.00 Build 43363)  -->
<!DOCTYPE svg PUBLIC "-//W3C//DTD SVG 1.1//EN" "http://www.w3.org/Graphics/SVG/1.1/DTD/svg11.dtd">
<svg version="1.1" id="Layer_1" xmlns="http://www.w3.org/2000/svg" xmlns:xlink="http://www.w3.org/1999/xlink" x="0px" y="0px"
	 width="468.963px" height="404.547px" viewBox="0 0 468.963 404.547" enable-background="new 0 0 468.963 404.547"
	 xml:space="preserve">
<g>
	<path d="M351.722,3.454H117.24L0,206.523l74.487,129.014c13.961-1.255,25.405-4.665,32.302-11.924
		c8.296-8.673,11.313-23.38,11.313-59.957V115.081h57.318v162.526c0,39.972-8.673,64.482-26.02,80.32
		c-12.514,11.68-30.362,18.433-49.759,21.176l17.6,30.482h234.481l117.241-203.063L351.722,3.454z M146.007,92.456
		c-18.101,0-29.791-12.82-29.791-28.659c0-16.215,12.067-28.658,30.544-28.658c18.477,0,29.791,12.443,30.168,28.658
		C176.928,79.635,165.238,92.456,146.007,92.456z M314.208,296.55v-96.848c0-23.042-7.921-38.884-28.441-38.884
		c-14.401,0-23.402,9.361-27.363,19.442c-1.439,3.239-1.801,7.921-1.801,11.881V296.55h-54.725V40.927h54.725v100.809h0.721
		c5.761-7.92,12.962-14.041,21.603-18.361c8.28-4.319,18.361-6.841,28.442-6.841c34.923,0,61.564,24.122,61.564,77.407V296.55
		H314.208z"/>
	<path fill="#FFFFFF" d="M149.4,357.927c17.347-15.838,26.02-40.349,26.02-80.32V115.081h-57.318v148.575
		c0,36.577-3.017,51.284-11.313,59.957c-6.896,7.259-18.34,10.669-32.302,11.924l25.153,43.566
		C119.038,376.36,136.886,369.607,149.4,357.927z"/>
	<path fill="#FFFFFF" d="M146.76,35.138c-18.477,0-30.544,12.443-30.544,28.658c0,15.839,11.69,28.659,29.791,28.659
		c19.231,0,30.921-12.82,30.921-28.659C176.551,47.582,165.237,35.138,146.76,35.138z"/>
	<path fill="#FFFFFF" d="M307.368,116.534c-10.081,0-20.162,2.521-28.442,6.841c-8.641,4.32-15.842,10.441-21.603,18.361h-0.721
		V40.927h-54.725V296.55h54.725V192.141c0-3.96,0.361-8.642,1.801-11.881c3.961-10.081,12.962-19.442,27.363-19.442
		c20.521,0,28.441,15.842,28.441,38.884v96.848h54.725V193.941C368.933,140.656,342.291,116.534,307.368,116.534z"/>
</g>
</svg>
